<svg width="21" height="24" viewBox="0 0 21 24" fill="none" xmlns="http://www.w3.org/2000/svg">
<path d="M19.3094 10.0516H1.15894M14.2676 1.98474V6.01817M6.20072 1.98474V6.01817M5.99905 22.1519H14.4692C16.1634 22.1519 17.0105 22.1519 17.6576 21.8222C18.2268 21.5321 18.6896 21.0694 18.9796 20.5002C19.3094 19.8531 19.3094 19.006 19.3094 17.3118V8.84157C19.3094 7.14737 19.3094 6.30027 18.9796 5.65317C18.6896 5.08397 18.2268 4.62119 17.6576 4.33117C17.0105 4.00145 16.1634 4.00146 14.4692 4.00146H5.99905C4.30485 4.00146 3.45775 4.00145 2.81065 4.33117C2.24145 4.62119 1.77867 5.08397 1.48865 5.65317C1.15894 6.30027 1.15894 7.14737 1.15894 8.84157V17.3118C1.15894 19.006 1.15894 19.8531 1.48865 20.5002C1.77867 21.0694 2.24145 21.5321 2.81065 21.8222C3.45775 22.1519 4.30485 22.1519 5.99905 22.1519Z" stroke="#232323" stroke-width="2.01671" stroke-linecap="round" stroke-linejoin="round"/>
</svg>
